<svg width="156" height="548" viewBox="0 0 156 548" fill="none" xmlns="http://www.w3.org/2000/svg">
<path d="M142.342 448.021L118.073 479.699L131.297 475.531C129.588 483.573 123.863 501.027 106.023 507.432C82.5102 515.894 77.4895 447.546 77.4895 447.546L69.065 392.596L94.0254 388.708C97.1813 388.219 99.4505 385.743 99.1114 383.198L98.8636 381.226C98.5246 378.639 95.6816 376.974 92.5257 377.478L67.3566 381.394L66.3003 374.429C74.1901 370.709 79.2239 361.856 78.298 352.318C78.8196 351.269 79.2761 350.234 79.6151 349.409C81.0105 345.912 84.1404 337.255 77.5156 334.682C77.0591 334.514 76.6157 334.346 76.1984 334.234L74.7248 329.829C75.1943 329.465 75.6116 329.101 75.9376 328.682C78.1154 326.248 75.5594 320.892 74.0858 318.291C72.7817 316.011 69.7301 310.99 65.8569 312.039L63.4965 307.438C64.7484 305.032 64.0181 300.613 63.4443 298.207C62.8053 295.424 61.0709 288.991 56.4413 289.662L54.1331 282.613C54.2896 282.529 54.42 282.445 54.5765 282.361C57.3151 280.725 56.3631 274.795 55.685 271.858C55.1503 269.495 53.8071 264.446 50.5207 263.453L50.4686 257.047C52.1248 255.817 53.6506 254.04 54.5765 252.824C56.1544 250.796 59.4929 246.139 57.4716 242.586L61.0448 239.314C63.4183 240.237 67.2262 239.118 69.3519 238.349C71.7254 237.454 77.0852 235.272 76.7722 230.88L81.5322 229.384C82.9015 232.139 88.0787 232.237 90.7652 232.111C93.5299 231.943 100.207 231.328 99.9199 225.664L105.71 224.307C106.206 225.062 106.819 225.664 107.445 226.167C109.975 228.167 114.604 224.811 116.86 222.922C119.09 221.034 124.385 216.209 120.642 211.692C119.964 210.881 119.312 210.279 118.699 209.86L118.96 203.091C119.573 202.923 120.173 202.699 120.694 202.419C123.511 200.923 122.833 194.965 122.272 191.972C121.698 188.965 120.12 181.735 114.63 183.259C114.122 183.399 113.652 183.567 113.235 183.735L110.47 179.623C111.148 178.742 111.605 177.707 111.892 176.742C112.804 173.525 108.279 169.945 105.867 168.337C103.976 167.064 99.8939 164.532 96.8944 166.029L93.3995 161.456C93.7646 160.98 94.0776 160.491 94.3384 159.987C95.8381 157.022 92.0562 152.575 89.9827 150.477C88.3265 148.785 84.5838 145.232 81.2974 146.393L78.4545 141.876C78.5067 141.82 78.5327 141.792 78.5849 141.736C80.828 139.372 78.5067 133.918 77.1374 131.247C76.1462 129.359 74.0597 125.568 71.2037 124.729L70.3561 119.792C73.1729 118.632 73.4859 112.855 73.4598 109.891C73.4337 107.233 73.1468 101.149 69.2737 100.017V94.5203C69.4562 94.4923 69.5997 94.4364 69.7562 94.3804C72.7817 93.4434 73.1208 87.4576 73.0686 84.3947C73.0425 81.8213 72.7817 76.0732 69.2737 74.6607V70.0874C69.4562 70.0594 69.5997 70.0035 69.7562 69.9475C72.7817 69.0105 73.1208 63.0107 73.0686 59.9618C73.0425 57.3884 72.7817 51.6403 69.2737 50.2278V44.5076C69.4562 44.4797 69.5997 44.4237 69.7562 44.3818C72.7817 43.4308 73.1208 37.4449 73.0686 34.396C73.0425 31.8087 72.7817 26.0746 69.2737 24.648V20.1866C69.4562 20.1587 69.5997 20.1027 69.7562 20.0468C72.7817 19.1097 73.1208 13.1099 73.0686 10.061C73.0164 7.01216 72.6774 -0.428206 67.0176 0.0193343C61.3839 0.466875 61.2795 4.18705 60.9144 7.12404C60.5492 10.061 60.9405 13.4455 60.9405 13.4455C61.5664 17.3895 63.34 19.2776 65.3353 19.9908V24.5921C61.3578 25.5991 61.2535 28.8158 60.9144 31.4451C60.5492 34.396 60.9405 37.7806 60.9405 37.7806C61.5664 41.7105 63.34 43.5986 65.3353 44.3258V50.1439C61.3578 51.1368 61.2535 54.3675 60.9144 56.9968C60.5492 59.9338 60.9405 63.3183 60.9405 63.3183C61.5664 67.2623 63.34 69.1504 65.3353 69.8636V74.5768C61.3578 75.5837 61.2535 78.8004 60.9144 81.4297C60.5492 84.3667 60.9405 87.7512 60.9405 87.7512C61.5664 91.6952 63.34 93.5833 65.3353 94.2965V100.184C61.749 101.289 61.6186 104.394 61.3056 106.926C60.9144 109.863 61.3317 113.247 61.3317 113.247C62.0229 117.625 64.1746 119.485 66.4177 120.016L67.3827 125.457C62.6488 128.701 64.2007 132.002 65.1527 134.771C66.1177 137.568 67.9565 140.323 67.9565 140.323C70.3561 143.624 72.886 144.309 75.0378 143.82L78.3763 149.106C75.8593 153.106 78.0372 155.554 79.5891 157.707C81.2974 160.071 83.8274 162.099 83.8274 162.099C86.3182 163.931 88.4569 164.253 90.1653 163.763L94.3645 169.106C92.4214 173.777 95.0557 175.735 97.0509 177.567C99.1636 179.511 102.02 180.952 102.02 180.952C104.08 181.903 105.814 182.07 107.21 181.735L110.288 186.308C109.596 187.86 109.779 189.665 109.857 191.273C109.975 194.238 110.94 197.483 110.94 197.483C111.944 200.434 113.443 202.014 115.047 202.699L114.787 209.021C113.652 209.356 112.622 210.084 111.631 210.657C109.231 212.14 106.975 214.545 106.975 214.545C105.228 216.573 104.523 218.489 104.497 220.181L98.8636 221.482C97.4813 219.09 95.0817 219.034 93.0343 218.853C90.2696 218.545 87.1659 219.118 87.1659 219.118C82.9797 220.069 81.3496 222.559 81.0105 225.062L75.3247 226.866C73.2251 223.65 70.4865 224.503 68.1521 224.95C65.4135 225.51 62.5706 226.95 62.5706 226.95C57.9932 229.552 57.602 233.216 58.5409 235.985L54.42 239.789C50.925 237.985 48.9428 240.321 47.1301 242.041C45.0566 243.999 43.3221 246.866 43.3221 246.866C39.9967 252.908 43.1656 256.628 46.0477 258.012C46.2303 258.096 46.3998 258.152 46.5824 258.208L46.6345 263.886C42.3962 265.802 43.0222 269.131 43.2439 271.914C43.5047 274.879 44.6262 278.04 44.6262 278.04C46.0738 281.704 48.1864 283.117 50.286 283.34L52.842 291.186C50.3642 293.13 50.8337 295.9 51.0293 298.263C51.2901 301.228 52.4117 304.389 52.4117 304.389C54.3678 309.354 57.5759 310.193 60.1971 309.549L62.5967 314.235C59.9624 317.172 61.3317 319.927 62.2576 322.276C63.3139 325.032 65.2831 327.717 65.2831 327.717C67.2784 330.234 69.2737 331.129 71.0603 331.101L72.0383 334.066C70.8255 334.458 69.9127 335.255 69.1693 336.234C65.2049 333.493 60.3406 332.206 55.3068 332.989C44.2611 334.71 36.5799 345.716 38.184 357.562C39.5272 367.436 46.8432 374.793 55.6589 375.981L56.4935 383.002L31.3244 386.904C28.1685 387.408 25.8994 389.883 26.2254 392.428L26.4862 394.4C26.8253 396.946 29.6682 398.638 32.8241 398.176L57.7846 394.288L64.2268 449.574C64.2268 449.574 77.4634 516.607 52.6855 515.642C33.8544 514.915 23.7998 499.908 20.0179 492.733L33.7892 492.705L2.0996 469.783L0 510.705L9.23301 497.782C13.2496 506.341 21.7784 520.803 36.4495 528.453C58.1497 539.795 68.752 541.459 74.6726 543.851C79.6673 545.851 82.4842 547.977 84.1404 547.767C84.1664 547.767 84.1925 547.767 84.2447 547.767C84.2708 547.767 84.3229 547.739 84.349 547.739C86.0052 547.459 88.1309 544.564 92.3953 541.138C97.4422 537.054 107.158 532.229 124.985 514.747C137.008 502.971 141.377 486.51 142.955 477.056L155.24 486.65L142.342 448.021ZM64.6963 15.7252C64.279 15.0259 63.966 14.1169 63.7834 12.998C63.7312 12.5924 63.4443 9.86522 63.7573 7.57158L63.8356 7.01215C64.1746 4.27097 64.279 3.34792 67.2262 3.12415C68.2565 3.04023 68.6738 3.40386 69.0389 4.01923C69.7301 5.18004 70.1213 7.23593 70.1474 10.117C70.1996 13.6973 69.6518 15.7811 69.2215 16.6343V15.4175C69.2215 14.2567 68.3347 13.3057 67.2523 13.3057C66.1699 13.3057 65.2831 14.2567 65.2831 15.4175V16.4664C65.0745 16.2706 64.8788 16.0329 64.6963 15.7252ZM64.6963 40.0462C64.279 39.3609 63.966 38.4379 63.7834 37.333C63.7312 36.9134 63.4443 34.2002 63.7573 31.8926L63.8356 31.3332C64.0703 29.3752 64.2007 28.3403 65.3353 27.8368V29.8087C65.3353 30.9835 66.2221 31.9206 67.3045 31.9206C68.3869 31.9206 69.2737 30.9835 69.2737 29.8087V28.7598C69.8344 29.9766 70.1474 31.8926 70.1735 34.466C70.2256 38.0463 69.6779 40.1301 69.2476 40.9973V39.7665C69.2476 38.6057 68.3608 37.6687 67.2784 37.6687C66.196 37.6687 65.3092 38.6057 65.3092 39.7665V40.8294C65.0745 40.6336 64.8788 40.3819 64.6963 40.0462ZM64.6963 65.626C64.279 64.9267 63.966 64.0176 63.7834 62.8988C63.7312 62.4932 63.4443 59.766 63.7573 57.4723L63.8356 56.9129C64.0703 54.9409 64.2007 53.92 65.3353 53.4165V54.1438C65.3353 55.3046 66.2221 56.2416 67.3045 56.2416C68.3347 56.2416 69.1954 55.3885 69.2476 54.3116C69.8083 55.5283 70.1213 57.4444 70.1735 60.0177C70.2256 63.598 69.6779 65.6819 69.2476 66.535V65.3183C69.2476 64.1575 68.3608 63.2064 67.2784 63.2064C66.196 63.2064 65.3092 64.1575 65.3092 65.3183V66.3672C65.0745 66.1714 64.8788 65.9337 64.6963 65.626ZM64.6963 90.0589C64.279 89.3596 63.966 88.4505 63.7834 87.3457C63.7312 86.9261 63.4443 84.2129 63.7573 81.9053L63.8356 81.3458C64.0703 79.3738 64.2007 78.3529 65.3353 77.8494V79.7095C65.3353 80.8843 66.2221 81.8213 67.3045 81.8213C68.3869 81.8213 69.2737 80.8843 69.2737 79.7095V78.7725C69.8344 79.9892 70.1474 81.9053 70.1735 84.4786C70.2256 88.0589 69.6779 90.1428 69.2476 90.9959V89.7792C69.2476 88.6184 68.3608 87.6673 67.2784 87.6673C66.196 87.6673 65.3092 88.6184 65.3092 89.7792V90.8421C65.0745 90.6183 64.8788 90.3666 64.6963 90.0589ZM65.0745 115.527C64.6702 114.827 64.3572 113.918 64.1746 112.8C64.1225 112.394 63.8356 109.667 64.1486 107.373L64.2007 106.814C64.4094 105.093 64.5398 104.1 65.3092 103.541V104.128C65.3092 105.289 66.196 106.226 67.2784 106.226C68.3608 106.226 69.2476 105.289 69.2476 104.128V103.569C69.2997 103.653 69.378 103.737 69.4301 103.849C70.1213 105.01 70.5126 107.065 70.5386 109.946C70.5908 113.247 70.1213 115.275 69.704 116.24L69.4562 114.799C69.2476 113.667 68.2304 112.911 67.1741 113.107C66.1177 113.331 65.4135 114.408 65.5961 115.555L65.7265 116.324C65.5179 116.128 65.2831 115.876 65.0745 115.527ZM72.247 140.463C71.5689 140.072 70.9038 139.4 70.2517 138.519C70.017 138.183 68.5955 135.904 67.8522 133.75L67.6696 133.219C66.8872 131.051 66.5481 130.114 67.9565 128.841L68.1 129.722C68.2825 130.855 69.3258 131.61 70.3821 131.414C71.4385 131.191 72.1427 130.114 71.9601 128.981L71.9079 128.757C72.7556 129.61 73.6685 130.967 74.6205 132.799C76.2245 135.932 76.6679 138.016 76.6679 139.023L75.9898 137.932C75.4029 136.967 74.1901 136.715 73.2772 137.386C72.3774 138.016 72.1427 139.316 72.7295 140.295L73.0947 140.869C72.8078 140.743 72.5339 140.631 72.247 140.463ZM67.6435 347.632C67.6957 347.465 67.8261 346.989 68.0478 346.36C69.3258 348.136 70.1996 350.234 70.5126 352.597C70.6169 353.381 70.643 354.122 70.643 354.877C69.4041 354.485 67.6957 353.562 67.3827 351.213C67.2523 350.206 67.3306 349.017 67.6435 347.632ZM81.8452 155.819L81.5322 155.386C80.4628 153.945 79.876 153.134 80.1629 152.029L80.215 152.113C80.8019 153.078 82.0147 153.33 82.9276 152.659C83.8274 152.029 84.0621 150.729 83.4492 149.75L83.1362 149.246H83.1623C84.4273 149.526 86.0574 150.673 88.0005 152.659C91.0782 155.791 91.8737 157.987 91.7693 158.491C91.6911 158.63 91.6128 158.798 91.4824 158.966L90.7913 158.071C90.0871 157.19 88.8482 157.078 88.0266 157.819C87.192 158.547 87.0876 159.847 87.7658 160.728C87.0615 160.547 86.2921 160.155 85.4575 159.568C85.1706 159.344 83.1623 157.651 81.8452 155.819ZM103.154 178.182C102.789 177.987 100.52 176.77 98.8636 175.273L98.4724 174.91C97.1813 173.749 96.451 173.078 96.5032 171.973C97.2074 172.742 98.3681 172.826 99.1636 172.113C99.9982 171.357 100.103 170.029 99.3983 169.134L98.9679 168.56C100.259 168.56 102.072 169.329 104.341 170.854C107.966 173.273 109.127 175.245 109.127 175.763C109.049 176.043 108.918 176.462 108.683 176.882L108.018 175.875C107.392 174.938 106.154 174.742 105.267 175.413C104.393 176.071 104.21 177.399 104.836 178.35L105.149 178.798C104.523 178.714 103.871 178.49 103.154 178.182ZM114.969 199.035C114.461 198.434 113.991 197.594 113.626 196.546C113.522 196.126 112.778 193.525 112.674 191.189L112.648 190.63C112.648 190.392 112.622 190.14 112.622 189.888L112.7 190C113.313 190.937 114.552 191.133 115.439 190.476C116.312 189.804 116.495 188.476 115.882 187.525L115.021 186.252C115.126 186.224 115.256 186.196 115.36 186.14C116.339 185.861 116.834 186.14 117.304 186.672C118.177 187.693 118.908 189.637 119.416 192.434C120.251 196.909 119.729 199.175 119.364 199.538C119.286 199.594 119.195 199.622 119.064 199.678L119.09 198.937C119.142 197.762 118.282 196.797 117.199 196.741C116.104 196.685 115.204 197.594 115.152 198.741L115.126 199.175C115.1 199.147 115.021 199.091 114.969 199.035ZM107.575 219.146C107.836 218.377 108.331 217.566 109.049 216.741C109.336 216.433 111.174 214.545 113.052 213.412L113.496 213.133C113.939 212.853 114.304 212.629 114.63 212.433L114.604 213.105C114.552 214.265 115.413 215.244 116.469 215.3C117.434 215.356 118.256 214.657 118.464 213.692C119.116 214.489 119.116 215.049 118.882 215.734C118.438 217.048 117.147 218.629 115.021 220.405C111.683 223.23 109.57 223.762 109.101 223.566C109.049 223.538 108.996 223.482 108.944 223.454L109.075 223.426C110.131 223.174 110.809 222.069 110.574 220.923C110.34 219.79 109.309 219.062 108.253 219.314L107.445 219.51C107.497 219.398 107.523 219.286 107.575 219.146ZM85.1706 223.286C85.7966 222.811 86.6442 222.447 87.6875 222.223C88.0787 222.181 90.6087 221.762 92.7605 222.013L93.2691 222.069C94.1558 222.153 94.8209 222.195 95.3426 222.391L95.16 222.419C94.1037 222.671 93.4255 223.79 93.6603 224.922C93.895 226.055 94.9253 226.783 95.9816 226.531L96.9988 226.279C96.9205 226.866 96.6336 227.216 96.2163 227.524C95.16 228.335 93.2691 228.81 90.5826 228.936C87.5571 229.104 85.6662 228.726 84.7142 228.307L85.1706 228.167C86.2139 227.831 86.8007 226.671 86.5008 225.552C86.2139 224.559 85.301 223.943 84.3751 224.055C84.6098 223.79 84.8707 223.51 85.1706 223.286ZM61.7229 231.524C62.1794 230.88 62.9097 230.307 63.8356 229.747C64.2007 229.552 66.522 228.447 68.6477 228.027L69.1693 227.915C70.5908 227.636 71.4645 227.44 72.1948 227.859L71.2559 228.167C70.2256 228.503 69.6258 229.664 69.9387 230.768C70.2517 231.887 71.3341 232.517 72.3774 232.181L73.7728 231.747C73.6945 231.943 73.5902 232.111 73.4337 232.293C72.6382 233.384 70.9299 234.405 68.3869 235.356C66.5742 236.013 65.1527 236.321 64.0703 236.461L64.4615 236.097C65.2831 235.356 65.3614 234.013 64.6702 233.132C63.966 232.237 62.7271 232.167 61.8925 232.908L60.9926 233.747C60.9666 233.048 61.1491 232.265 61.7229 231.524ZM44.7697 251.243C44.874 250.446 45.187 249.523 45.7347 248.558C45.9434 248.195 47.3909 245.943 49.021 244.39L49.3992 243.999C50.3642 243.062 51.0033 242.446 51.7075 242.307C50.925 243.062 50.8598 244.362 51.5249 245.23C52.2291 246.111 53.468 246.195 54.2896 245.453L55.1764 244.614C55.2285 244.838 55.2024 245.09 55.1764 245.369C54.9938 246.754 54.0288 248.558 52.3334 250.768C51.6031 251.719 50.925 252.46 50.3121 253.075C50.0773 252.18 49.3079 251.523 48.4211 251.551C47.3387 251.579 46.478 252.516 46.478 253.663V254.796C45.6304 254.236 44.548 253.103 44.7697 251.243ZM47.2605 276.935C47.1301 276.543 46.2694 273.956 46.0738 271.634L46.0216 271.075C45.839 269.187 45.7347 268.166 46.6084 267.411V268.054C46.6084 269.215 47.5213 270.138 48.5776 270.138C49.66 270.138 50.5468 269.159 50.5207 268.026V266.977C51.4206 267.942 52.2291 269.83 52.842 272.571C53.8592 276.879 53.4941 279.173 53.1289 279.62L52.9464 279.033C52.5812 277.956 51.4727 277.369 50.4425 277.76C49.6339 278.068 49.1254 278.865 49.1514 279.76C48.9949 279.648 48.8645 279.536 48.708 279.368C48.1603 278.781 47.6778 277.956 47.2605 276.935ZM56.4935 305.717C55.9458 305.144 55.4633 304.333 55.046 303.312C54.9155 302.92 54.0548 300.333 53.8592 298.011L53.8071 297.452C53.6767 296.067 53.5984 295.158 53.9114 294.459C54.3939 295.242 55.3329 295.592 56.1805 295.27C57.1586 294.907 57.6802 293.788 57.4194 292.739C57.7324 292.823 57.9932 293.018 58.254 293.298C59.1799 294.263 59.9885 296.151 60.6275 298.948C61.0709 300.836 61.2535 302.333 61.2795 303.452C60.6797 302.92 59.832 302.808 59.1017 303.256C58.1497 303.801 57.8106 305.088 58.3323 306.109L58.6453 306.724C57.941 306.668 57.1847 306.445 56.4935 305.717ZM69.5345 327.689C68.8563 327.325 68.1521 326.696 67.461 325.829C67.2262 325.493 65.7004 323.311 64.8788 321.144L64.6702 320.612C64.0442 319.06 63.6791 318.123 64.0703 317.228L64.8006 318.64C65.3092 319.675 66.4959 320.039 67.461 319.479C68.4129 318.92 68.752 317.647 68.2304 316.626L67.4349 315.046C67.5392 315.102 67.6696 315.13 67.7739 315.214C68.9346 315.815 70.2256 317.395 71.5949 319.871C73.7989 323.773 74.0597 326.108 73.825 326.556C73.7728 326.612 73.7206 326.668 73.6685 326.724L72.9382 324.584C72.5861 323.507 71.4385 322.92 70.4343 323.311C69.4302 323.689 68.8824 324.892 69.2476 325.997L69.8605 327.829C69.7562 327.801 69.6258 327.745 69.5345 327.689ZM73.199 337.759L73.7989 339.535C74.164 340.612 75.2725 341.199 76.3027 340.807C76.9809 340.556 77.4112 339.954 77.5677 339.255C77.7503 339.563 77.8546 339.926 77.9068 340.304C78.1154 341.73 77.7503 343.744 76.8765 346.276C75.755 343.339 74.0597 340.751 71.9601 338.64C72.3252 338.206 72.7034 337.898 73.199 337.759ZM59.9363 367.8C53.1028 368.849 46.7389 363.744 45.7347 356.429C44.7436 349.101 49.5035 342.276 56.337 341.227C59.5973 340.724 62.7271 341.619 65.231 343.479C64.5659 345.213 64.1746 346.583 64.1746 346.583C62.3098 354.318 66.3525 357.702 70.017 358.667C68.5955 363.394 64.8006 367.044 59.9363 367.8Z" fill="white"/>
</svg>
