<svg width="195" height="83" viewBox="0 0 195 83" fill="none" xmlns="http://www.w3.org/2000/svg">
<path d="M186.401 1.46354C183.745 1.36979 180.5 1.27083 176.792 1.125C173.083 1 168.885 0.880209 164.323 0.78125C159.76 0.661458 154.812 0.536458 149.589 0.463542C144.37 0.369791 138.854 0.270833 133.146 0.223958C127.438 0.171876 121.536 0.0729167 115.557 0.0729167C109.557 0.0520833 103.484 0.0260413 97.3854 0C91.3073 0.0260413 85.2083 0.0520833 79.2083 0.0729167C73.2083 0.0729167 67.3281 0.171876 61.6198 0.223958C55.9115 0.270833 50.3958 0.369791 45.1771 0.463542C39.9583 0.536458 35.0052 0.661458 30.4427 0.78125C25.8802 0.880209 21.6875 1 17.9792 1.125C14.2708 1.24479 11.026 1.36979 8.36458 1.46354C5.70833 1.5625 3.60938 1.66146 2.19271 1.73438C0.776042 1.80729 0 1.83333 0 1.83333C0 1.83333 0.755208 1.85417 2.19271 1.92708C3.60938 1.97917 5.70833 2.09896 8.36458 2.19792C11.026 2.29688 14.2708 2.39062 17.9792 2.54167C20.0729 2.61458 22.3177 2.6875 24.7083 2.73438C27.8802 13.1042 33.1979 22.5208 40.151 30.474C40.0781 30.5469 39.9792 30.6198 39.8854 30.6927C35.151 34.5938 30.3438 38.4271 25.6875 42.4531C22.4427 45.2552 22.3698 49.625 25.224 52.5C28.0781 55.3802 32.3438 55.2604 35.2969 52.1875C36.4219 51.0156 37.4427 49.6979 38.4948 48.4531C41.4427 44.8906 44.375 41.3281 47.375 37.6927C59.5729 48.3542 75.2344 55.1875 92.4323 56.2812C91.8229 62.5312 91.1406 68.5052 90.724 74.5052C90.3802 79.3385 93.5781 82.7552 97.8698 82.5573C102.042 82.3646 104.729 78.901 104.339 74.1927C103.823 68.2604 103.286 62.3333 102.724 56.2812C119.802 55.1146 135.292 48.2812 147.417 37.6927C147.562 37.8646 147.714 38.0365 147.859 38.2083C151.786 42.9375 155.589 47.7708 159.667 52.3542C162.375 55.4063 166.74 55.3333 169.521 52.5781C172.276 49.8177 172.255 45.5521 169.349 42.6927C168.104 41.474 166.74 40.401 165.396 39.2812C161.859 36.3542 158.297 33.401 154.688 30.4219C161.641 22.4688 166.932 13.0521 170.104 2.73438C172.495 2.66146 174.74 2.58854 176.839 2.54167C180.547 2.41667 183.792 2.29688 186.453 2.19792C189.109 2.09896 191.208 2.00521 192.625 1.92708C194.036 1.85417 194.818 1.83333 194.818 1.83333C194.818 1.83333 194.062 1.80729 192.625 1.73438C191.161 1.66146 189.062 1.5625 186.401 1.46354ZM53.1302 15.6875C51.9583 15.5938 50.9115 14.9792 50.2292 14.0521C47.8125 10.6875 45.7656 7.02604 44.1042 3.17188C44.4479 3.17188 44.7865 3.19792 45.151 3.19792C50.375 3.29688 55.8854 3.39062 61.5938 3.44271C63.474 3.46875 65.375 3.48958 67.3021 3.48958C63.6198 7.17708 59.9115 10.8802 56.2292 14.5677C55.4219 15.3698 54.3021 15.7865 53.1302 15.6875ZM92.5521 33.5729C92.5521 34.7656 92.0156 35.8646 91.1146 36.6458C90.2135 37.401 89.0156 37.7448 87.8438 37.5469C78.6719 36.0365 70.2292 32.349 63.0573 27.0573C61.6458 26.0104 61.3021 24.0104 62.3281 22.5677C62.4271 22.4219 62.5469 22.276 62.6667 22.1562C68.8385 15.9323 75.0365 9.76042 81.2604 3.58854C84.9896 3.61458 88.7708 3.61458 92.5521 3.63542C92.5781 8.00521 92.5521 12.349 92.5521 16.7135C92.5521 22.3229 92.5781 27.9583 92.5521 33.5729ZM132.682 24.6667C132.589 25.8125 132 26.8385 131.073 27.4948C124.146 32.4479 116.094 35.9375 107.359 37.4479C106.141 37.6719 104.875 37.3281 103.922 36.5208C102.969 35.7188 102.411 34.5469 102.411 33.3021C102.411 27.6667 102.411 22.0312 102.411 16.4219C102.411 12.151 102.385 7.88021 102.411 3.63542C106.115 3.61458 109.823 3.61458 113.484 3.58854C119.51 9.56771 125.536 15.5938 131.536 21.5938C132.365 22.3958 132.781 23.5208 132.682 24.6667ZM143.88 14.9062C143.344 15.6406 142.516 16.0781 141.635 16.151C140.734 16.224 139.854 15.8854 139.224 15.276C135.271 11.3698 131.344 7.44271 127.417 3.51562C129.344 3.48958 131.245 3.46875 133.125 3.46875C138.833 3.41667 144.344 3.31771 149.568 3.22396C149.906 3.22396 150.25 3.22396 150.589 3.19792C148.833 7.34375 146.562 11.2969 143.88 14.9062Z" fill="#D4E7F4"/>
</svg>
